<?xml version="1.0" encoding="UTF-8" standalone="no"?><svg xmlns="http://www.w3.org/2000/svg" xmlns:xlink="http://www.w3.org/1999/xlink" contentScriptType="application/ecmascript" contentStyleType="text/css" height="1192px" preserveAspectRatio="none" style="width:3135px;height:1192px;" version="1.1" viewBox="0 0 3135 1192" width="3135px" zoomAndPan="magnify"><defs><filter height="300%" id="f1w1npnkd9y32h" width="300%" x="-1" y="-1"><feGaussianBlur result="blurOut" stdDeviation="2.0"/><feColorMatrix in="blurOut" result="blurOut2" type="matrix" values="0 0 0 0 0 0 0 0 0 0 0 0 0 0 0 0 0 0 .4 0"/><feOffset dx="4.0" dy="4.0" in="blurOut2" result="blurOut3"/><feBlend in="SourceGraphic" in2="blurOut3" mode="normal"/></filter></defs><g><rect fill="#DDDDDD" height="1133.8438" style="stroke: #A80036; stroke-width: 1.0;" width="556" x="496.5" y="47.2969"/><text fill="#000000" font-family="sans-serif" font-size="13" font-weight="bold" lengthAdjust="spacingAndGlyphs" textLength="53" x="748" y="59.3638">TPP API</text><rect fill="#DDDDDD" height="1133.8438" style="stroke: #A80036; stroke-width: 1.0;" width="800" x="1054.5" y="47.2969"/><text fill="#000000" font-family="sans-serif" font-size="13" font-weight="bold" lengthAdjust="spacingAndGlyphs" textLength="92" x="1408.5" y="59.3638">OPBA-Facade</text><rect fill="#DDDDDD" height="1133.8438" style="stroke: #A80036; stroke-width: 1.0;" width="1206.5" x="1856.5" y="47.2969"/><text fill="#000000" font-family="sans-serif" font-size="13" font-weight="bold" lengthAdjust="spacingAndGlyphs" textLength="99" x="2410.25" y="59.3638">XS2A-Protocol</text><rect fill="#FFFFFF" filter="url(#f1w1npnkd9y32h)" height="857.8516" style="stroke: #A80036; stroke-width: 1.0;" width="10" x="427" y="218.9922"/><rect fill="#FFFFFF" filter="url(#f1w1npnkd9y32h)" height="799.5859" style="stroke: #A80036; stroke-width: 1.0;" width="10" x="587" y="248.125"/><rect fill="#FFFFFF" filter="url(#f1w1npnkd9y32h)" height="29.1328" style="stroke: #A80036; stroke-width: 1.0;" width="10" x="955" y="989.4453"/><rect fill="#FFFFFF" filter="url(#f1w1npnkd9y32h)" height="683.0547" style="stroke: #A80036; stroke-width: 1.0;" width="10" x="1111.5" y="277.2578"/><rect fill="#FFFFFF" filter="url(#f1w1npnkd9y32h)" height="29.1328" style="stroke: #A80036; stroke-width: 1.0;" width="10" x="1213.5" y="393.7891"/><rect fill="#FFFFFF" filter="url(#f1w1npnkd9y32h)" height="29.1328" style="stroke: #A80036; stroke-width: 1.0;" width="10" x="1213.5" y="582.5859"/><rect fill="#FFFFFF" filter="url(#f1w1npnkd9y32h)" height="29.1328" style="stroke: #A80036; stroke-width: 1.0;" width="10" x="1362.5" y="306.3906"/><rect fill="#FFFFFF" filter="url(#f1w1npnkd9y32h)" height="87.3984" style="stroke: #A80036; stroke-width: 1.0;" width="10" x="1546.5" y="364.6563"/><rect fill="#FFFFFF" filter="url(#f1w1npnkd9y32h)" height="29.1328" style="stroke: #A80036; stroke-width: 1.0;" width="10" x="1646.5" y="481.1875"/><rect fill="#FFFFFF" filter="url(#f1w1npnkd9y32h)" height="29.1328" style="stroke: #A80036; stroke-width: 1.0;" width="10" x="1765.5" y="902.0469"/><rect fill="#FFFFFF" filter="url(#f1w1npnkd9y32h)" height="333.4609" style="stroke: #A80036; stroke-width: 1.0;" width="10" x="1954" y="539.4531"/><rect fill="#FFFFFF" filter="url(#f1w1npnkd9y32h)" height="29.1328" style="stroke: #A80036; stroke-width: 1.0;" width="10" x="2531.5" y="785.5156"/><rect fill="#FFFFFF" filter="url(#f1w1npnkd9y32h)" height="532.3906" style="stroke: #A80036; stroke-width: 1.0;" width="10" x="2686.5" y="553.4531"/><rect fill="#FFFFFF" filter="url(#f1w1npnkd9y32h)" height="87.3984" style="stroke: #A80036; stroke-width: 1.0;" width="10" x="2990.5" y="756.3828"/><rect fill="#FFFFFF" filter="url(#f1w1npnkd9y32h)" height="29.1328" style="stroke: #A80036; stroke-width: 1.0;" width="10" x="3088.5" y="698.1172"/><line style="stroke: #A80036; stroke-width: 1.0; stroke-dasharray: 5.0,5.0;" x1="36" x2="36" y1="129.5938" y2="1094.8438"/><line style="stroke: #A80036; stroke-width: 1.0; stroke-dasharray: 5.0,5.0;" x1="432" x2="432" y1="129.5938" y2="1094.8438"/><line style="stroke: #A80036; stroke-width: 1.0; stroke-dasharray: 5.0,5.0;" x1="591.5" x2="591.5" y1="129.5938" y2="1094.8438"/><line style="stroke: #A80036; stroke-width: 1.0; stroke-dasharray: 5.0,5.0;" x1="777.5" x2="777.5" y1="129.5938" y2="1094.8438"/><line style="stroke: #A80036; stroke-width: 1.0; stroke-dasharray: 5.0,5.0;" x1="959.5" x2="959.5" y1="129.5938" y2="1094.8438"/><line style="stroke: #A80036; stroke-width: 1.0; stroke-dasharray: 5.0,5.0;" x1="1116.5" x2="1116.5" y1="129.5938" y2="1094.8438"/><line style="stroke: #A80036; stroke-width: 1.0; stroke-dasharray: 5.0,5.0;" x1="1218.5" x2="1218.5" y1="129.5938" y2="1094.8438"/><line style="stroke: #A80036; stroke-width: 1.0; stroke-dasharray: 5.0,5.0;" x1="1367" x2="1367" y1="129.5938" y2="1094.8438"/><line style="stroke: #A80036; stroke-width: 1.0; stroke-dasharray: 5.0,5.0;" x1="1551.5" x2="1551.5" y1="129.5938" y2="1094.8438"/><line style="stroke: #A80036; stroke-width: 1.0; stroke-dasharray: 5.0,5.0;" x1="1651.5" x2="1651.5" y1="129.5938" y2="1094.8438"/><line style="stroke: #A80036; stroke-width: 1.0; stroke-dasharray: 5.0,5.0;" x1="1770.5" x2="1770.5" y1="129.5938" y2="1094.8438"/><line style="stroke: #A80036; stroke-width: 1.0; stroke-dasharray: 5.0,5.0;" x1="1958.5" x2="1958.5" y1="129.5938" y2="1094.8438"/><line style="stroke: #A80036; stroke-width: 1.0; stroke-dasharray: 5.0,5.0;" x1="2158.5" x2="2158.5" y1="129.5938" y2="1094.8438"/><line style="stroke: #A80036; stroke-width: 1.0; stroke-dasharray: 5.0,5.0;" x1="2347.5" x2="2347.5" y1="129.5938" y2="1094.8438"/><line style="stroke: #A80036; stroke-width: 1.0; stroke-dasharray: 5.0,5.0;" x1="2536.5" x2="2536.5" y1="129.5938" y2="1094.8438"/><line style="stroke: #A80036; stroke-width: 1.0; stroke-dasharray: 5.0,5.0;" x1="2691.5" x2="2691.5" y1="129.5938" y2="1094.8438"/><line style="stroke: #A80036; stroke-width: 1.0; stroke-dasharray: 5.0,5.0;" x1="2995" x2="2995" y1="129.5938" y2="1094.8438"/><line style="stroke: #A80036; stroke-width: 1.0; stroke-dasharray: 5.0,5.0;" x1="3093" x2="3093" y1="129.5938" y2="1094.8438"/><text fill="#000000" font-family="sans-serif" font-size="14" lengthAdjust="spacingAndGlyphs" textLength="50" x="8" y="126.292">FinTech</text><ellipse cx="36" cy="56.2969" fill="#FEFECE" filter="url(#f1w1npnkd9y32h)" rx="8" ry="8" style="stroke: #A80036; stroke-width: 2.0;"/><path d="M36,64.2969 L36,91.2969 M23,72.2969 L49,72.2969 M36,91.2969 L23,106.2969 M36,91.2969 L49,106.2969 " fill="none" filter="url(#f1w1npnkd9y32h)" style="stroke: #A80036; stroke-width: 2.0;"/><text fill="#000000" font-family="sans-serif" font-size="14" lengthAdjust="spacingAndGlyphs" textLength="50" x="8" y="1106.8389">FinTech</text><ellipse cx="36" cy="1120.1406" fill="#FEFECE" filter="url(#f1w1npnkd9y32h)" rx="8" ry="8" style="stroke: #A80036; stroke-width: 2.0;"/><path d="M36,1128.1406 L36,1155.1406 M23,1136.1406 L49,1136.1406 M36,1155.1406 L23,1170.1406 M36,1155.1406 L49,1170.1406 " fill="none" filter="url(#f1w1npnkd9y32h)" style="stroke: #A80036; stroke-width: 2.0;"/><rect fill="#FEFECE" filter="url(#f1w1npnkd9y32h)" height="30.2969" style="stroke: #A80036; stroke-width: 1.5;" width="94" x="385" y="90.2969"/><rect fill="#FEFECE" filter="url(#f1w1npnkd9y32h)" height="30.2969" style="stroke: #A80036; stroke-width: 1.5;" width="94" x="381" y="94.2969"/><text fill="#000000" font-family="sans-serif" font-size="14" lengthAdjust="spacingAndGlyphs" textLength="80" x="388" y="114.292">TppBackend</text><rect fill="#FEFECE" filter="url(#f1w1npnkd9y32h)" height="30.2969" style="stroke: #A80036; stroke-width: 1.5;" width="94" x="385" y="1093.8438"/><rect fill="#FEFECE" filter="url(#f1w1npnkd9y32h)" height="30.2969" style="stroke: #A80036; stroke-width: 1.5;" width="94" x="381" y="1097.8438"/><text fill="#000000" font-family="sans-serif" font-size="14" lengthAdjust="spacingAndGlyphs" textLength="80" x="388" y="1117.8389">TppBackend</text><text fill="#000000" font-family="sans-serif" font-size="14" lengthAdjust="spacingAndGlyphs" textLength="177" x="500.5" y="126.292">TppBankingApiAisController</text><ellipse cx="592" cy="97.2969" fill="#FEFECE" filter="url(#f1w1npnkd9y32h)" rx="12" ry="12" style="stroke: #A80036; stroke-width: 2.0;"/><polygon fill="#A80036" points="588,85.2969,594,80.2969,592,85.2969,594,90.2969,588,85.2969" style="stroke: #A80036; stroke-width: 1.0;"/><text fill="#000000" font-family="sans-serif" font-size="14" lengthAdjust="spacingAndGlyphs" textLength="177" x="500.5" y="1106.8389">TppBankingApiAisController</text><ellipse cx="592" cy="1126.1406" fill="#FEFECE" filter="url(#f1w1npnkd9y32h)" rx="12" ry="12" style="stroke: #A80036; stroke-width: 2.0;"/><polygon fill="#A80036" points="588,1114.1406,594,1109.1406,592,1114.1406,594,1119.1406,588,1114.1406" style="stroke: #A80036; stroke-width: 1.0;"/><text fill="#000000" font-family="sans-serif" font-size="14" lengthAdjust="spacingAndGlyphs" textLength="162" x="693.5" y="126.292">ConsentServiceController</text><ellipse cx="777.5" cy="97.2969" fill="#FEFECE" filter="url(#f1w1npnkd9y32h)" rx="12" ry="12" style="stroke: #A80036; stroke-width: 2.0;"/><polygon fill="#A80036" points="773.5,85.2969,779.5,80.2969,777.5,85.2969,779.5,90.2969,773.5,85.2969" style="stroke: #A80036; stroke-width: 1.0;"/><text fill="#000000" font-family="sans-serif" font-size="14" lengthAdjust="spacingAndGlyphs" textLength="162" x="693.5" y="1106.8389">ConsentServiceController</text><ellipse cx="777.5" cy="1126.1406" fill="#FEFECE" filter="url(#f1w1npnkd9y32h)" rx="12" ry="12" style="stroke: #A80036; stroke-width: 2.0;"/><polygon fill="#A80036" points="773.5,1114.1406,779.5,1109.1406,777.5,1114.1406,779.5,1119.1406,773.5,1114.1406" style="stroke: #A80036; stroke-width: 1.0;"/><rect fill="#FEFECE" filter="url(#f1w1npnkd9y32h)" height="30.2969" style="stroke: #A80036; stroke-width: 1.5;" width="173" x="871.5" y="94.2969"/><text fill="#000000" font-family="sans-serif" font-size="14" lengthAdjust="spacingAndGlyphs" textLength="159" x="878.5" y="114.292">FacadeResponseMapper</text><rect fill="#FEFECE" filter="url(#f1w1npnkd9y32h)" height="30.2969" style="stroke: #A80036; stroke-width: 1.5;" width="173" x="871.5" y="1093.8438"/><text fill="#000000" font-family="sans-serif" font-size="14" lengthAdjust="spacingAndGlyphs" textLength="159" x="878.5" y="1113.8389">FacadeResponseMapper</text><rect fill="#FEFECE" filter="url(#f1w1npnkd9y32h)" height="30.2969" style="stroke: #A80036; stroke-width: 1.5;" width="108" x="1062.5" y="90.2969"/><rect fill="#FEFECE" filter="url(#f1w1npnkd9y32h)" height="30.2969" style="stroke: #A80036; stroke-width: 1.5;" width="108" x="1058.5" y="94.2969"/><text fill="#000000" font-family="sans-serif" font-size="14" lengthAdjust="spacingAndGlyphs" textLength="94" x="1065.5" y="114.292">FacadeService</text><rect fill="#FEFECE" filter="url(#f1w1npnkd9y32h)" height="30.2969" style="stroke: #A80036; stroke-width: 1.5;" width="108" x="1062.5" y="1093.8438"/><rect fill="#FEFECE" filter="url(#f1w1npnkd9y32h)" height="30.2969" style="stroke: #A80036; stroke-width: 1.5;" width="108" x="1058.5" y="1097.8438"/><text fill="#000000" font-family="sans-serif" font-size="14" lengthAdjust="spacingAndGlyphs" textLength="94" x="1065.5" y="1117.8389">FacadeService</text><text fill="#000000" font-family="sans-serif" font-size="14" lengthAdjust="spacingAndGlyphs" textLength="62" x="1184.5" y="126.292">Database</text><path d="M1200.5,77.2969 C1200.5,67.2969 1218.5,67.2969 1218.5,67.2969 C1218.5,67.2969 1236.5,67.2969 1236.5,77.2969 L1236.5,103.2969 C1236.5,113.2969 1218.5,113.2969 1218.5,113.2969 C1218.5,113.2969 1200.5,113.2969 1200.5,103.2969 L1200.5,77.2969 " fill="#FEFECE" filter="url(#f1w1npnkd9y32h)" style="stroke: #000000; stroke-width: 1.5;"/><path d="M1200.5,77.2969 C1200.5,87.2969 1218.5,87.2969 1218.5,87.2969 C1218.5,87.2969 1236.5,87.2969 1236.5,77.2969 " fill="none" style="stroke: #000000; stroke-width: 1.5;"/><text fill="#000000" font-family="sans-serif" font-size="14" lengthAdjust="spacingAndGlyphs" textLength="62" x="1184.5" y="1106.8389">Database</text><path d="M1200.5,1120.1406 C1200.5,1110.1406 1218.5,1110.1406 1218.5,1110.1406 C1218.5,1110.1406 1236.5,1110.1406 1236.5,1120.1406 L1236.5,1146.1406 C1236.5,1156.1406 1218.5,1156.1406 1218.5,1156.1406 C1218.5,1156.1406 1200.5,1156.1406 1200.5,1146.1406 L1200.5,1120.1406 " fill="#FEFECE" filter="url(#f1w1npnkd9y32h)" style="stroke: #000000; stroke-width: 1.5;"/><path d="M1200.5,1120.1406 C1200.5,1130.1406 1218.5,1130.1406 1218.5,1130.1406 C1218.5,1130.1406 1236.5,1130.1406 1236.5,1120.1406 " fill="none" style="stroke: #000000; stroke-width: 1.5;"/><rect fill="#FEFECE" filter="url(#f1w1npnkd9y32h)" height="30.2969" style="stroke: #A80036; stroke-width: 1.5;" width="165" x="1283" y="94.2969"/><text fill="#000000" font-family="sans-serif" font-size="14" lengthAdjust="spacingAndGlyphs" textLength="151" x="1290" y="114.292">ServiceContextProvider</text><rect fill="#FEFECE" filter="url(#f1w1npnkd9y32h)" height="30.2969" style="stroke: #A80036; stroke-width: 1.5;" width="165" x="1283" y="1093.8438"/><text fill="#000000" font-family="sans-serif" font-size="14" lengthAdjust="spacingAndGlyphs" textLength="151" x="1290" y="1113.8389">ServiceContextProvider</text><rect fill="#FEFECE" filter="url(#f1w1npnkd9y32h)" height="30.2969" style="stroke: #A80036; stroke-width: 1.5;" width="118" x="1490.5" y="94.2969"/><text fill="#000000" font-family="sans-serif" font-size="14" lengthAdjust="spacingAndGlyphs" textLength="104" x="1497.5" y="114.292">ProtocolSelector</text><rect fill="#FEFECE" filter="url(#f1w1npnkd9y32h)" height="30.2969" style="stroke: #A80036; stroke-width: 1.5;" width="118" x="1490.5" y="1093.8438"/><text fill="#000000" font-family="sans-serif" font-size="14" lengthAdjust="spacingAndGlyphs" textLength="104" x="1497.5" y="1113.8389">ProtocolSelector</text><rect fill="#FEFECE" filter="url(#f1w1npnkd9y32h)" height="30.2969" style="stroke: #A80036; stroke-width: 1.5;" width="54" x="1622.5" y="94.2969"/><text fill="#000000" font-family="sans-serif" font-size="14" lengthAdjust="spacingAndGlyphs" textLength="40" x="1629.5" y="114.292">Spring</text><rect fill="#FEFECE" filter="url(#f1w1npnkd9y32h)" height="30.2969" style="stroke: #A80036; stroke-width: 1.5;" width="54" x="1622.5" y="1093.8438"/><text fill="#000000" font-family="sans-serif" font-size="14" lengthAdjust="spacingAndGlyphs" textLength="40" x="1629.5" y="1113.8389">Spring</text><rect fill="#FEFECE" filter="url(#f1w1npnkd9y32h)" height="30.2969" style="stroke: #A80036; stroke-width: 1.5;" width="156" x="1690.5" y="94.2969"/><text fill="#000000" font-family="sans-serif" font-size="14" lengthAdjust="spacingAndGlyphs" textLength="142" x="1697.5" y="114.292">ProtocolResultHandler</text><rect fill="#FEFECE" filter="url(#f1w1npnkd9y32h)" height="30.2969" style="stroke: #A80036; stroke-width: 1.5;" width="156" x="1690.5" y="1093.8438"/><text fill="#000000" font-family="sans-serif" font-size="14" lengthAdjust="spacingAndGlyphs" textLength="142" x="1697.5" y="1113.8389">ProtocolResultHandler</text><rect fill="#FEFECE" filter="url(#f1w1npnkd9y32h)" height="30.2969" style="stroke: #A80036; stroke-width: 1.5;" width="193" x="1860.5" y="94.2969"/><text fill="#000000" font-family="sans-serif" font-size="14" lengthAdjust="spacingAndGlyphs" textLength="179" x="1867.5" y="114.292">Xs2aListAccountsEntrypoint</text><rect fill="#FEFECE" filter="url(#f1w1npnkd9y32h)" height="30.2969" style="stroke: #A80036; stroke-width: 1.5;" width="193" x="1860.5" y="1093.8438"/><text fill="#000000" font-family="sans-serif" font-size="14" lengthAdjust="spacingAndGlyphs" textLength="179" x="1867.5" y="1113.8389">Xs2aListAccountsEntrypoint</text><rect fill="#FEFECE" filter="url(#f1w1npnkd9y32h)" height="30.2969" style="stroke: #A80036; stroke-width: 1.5;" width="178" x="2067.5" y="94.2969"/><text fill="#000000" font-family="sans-serif" font-size="14" lengthAdjust="spacingAndGlyphs" textLength="164" x="2074.5" y="114.292">Xs2aUpdateAuthorization</text><rect fill="#FEFECE" filter="url(#f1w1npnkd9y32h)" height="30.2969" style="stroke: #A80036; stroke-width: 1.5;" width="178" x="2067.5" y="1093.8438"/><text fill="#000000" font-family="sans-serif" font-size="14" lengthAdjust="spacingAndGlyphs" textLength="164" x="2074.5" y="1113.8389">Xs2aUpdateAuthorization</text><rect fill="#FEFECE" filter="url(#f1w1npnkd9y32h)" height="30.2969" style="stroke: #A80036; stroke-width: 1.5;" width="172" x="2259.5" y="94.2969"/><text fill="#000000" font-family="sans-serif" font-size="14" lengthAdjust="spacingAndGlyphs" textLength="158" x="2266.5" y="114.292">Xs2aFromAspspRedirect</text><rect fill="#FEFECE" filter="url(#f1w1npnkd9y32h)" height="30.2969" style="stroke: #A80036; stroke-width: 1.5;" width="172" x="2259.5" y="1093.8438"/><text fill="#000000" font-family="sans-serif" font-size="14" lengthAdjust="spacingAndGlyphs" textLength="158" x="2266.5" y="1113.8389">Xs2aFromAspspRedirect</text><rect fill="#FEFECE" filter="url(#f1w1npnkd9y32h)" height="30.2969" style="stroke: #A80036; stroke-width: 1.5;" width="178" x="2445.5" y="94.2969"/><text fill="#000000" font-family="sans-serif" font-size="14" lengthAdjust="spacingAndGlyphs" textLength="164" x="2452.5" y="114.292">Xs2aResultBodyExtractor</text><rect fill="#FEFECE" filter="url(#f1w1npnkd9y32h)" height="30.2969" style="stroke: #A80036; stroke-width: 1.5;" width="178" x="2445.5" y="1093.8438"/><text fill="#000000" font-family="sans-serif" font-size="14" lengthAdjust="spacingAndGlyphs" textLength="164" x="2452.5" y="1113.8389">Xs2aResultBodyExtractor</text><rect fill="#FEFECE" filter="url(#f1w1npnkd9y32h)" height="30.2969" style="stroke: #A80036; stroke-width: 1.5;" width="100" x="2641.5" y="90.2969"/><rect fill="#FEFECE" filter="url(#f1w1npnkd9y32h)" height="30.2969" style="stroke: #A80036; stroke-width: 1.5;" width="100" x="2637.5" y="94.2969"/><text fill="#000000" font-family="sans-serif" font-size="14" lengthAdjust="spacingAndGlyphs" textLength="86" x="2644.5" y="114.292">Xs2aServices</text><rect fill="#FEFECE" filter="url(#f1w1npnkd9y32h)" height="30.2969" style="stroke: #A80036; stroke-width: 1.5;" width="100" x="2641.5" y="1093.8438"/><rect fill="#FEFECE" filter="url(#f1w1npnkd9y32h)" height="30.2969" style="stroke: #A80036; stroke-width: 1.5;" width="100" x="2637.5" y="1097.8438"/><text fill="#000000" font-family="sans-serif" font-size="14" lengthAdjust="spacingAndGlyphs" textLength="86" x="2644.5" y="1117.8389">Xs2aServices</text><rect fill="#FEFECE" filter="url(#f1w1npnkd9y32h)" height="30.2969" style="stroke: #A80036; stroke-width: 1.5;" width="123" x="2932" y="94.2969"/><text fill="#000000" font-family="sans-serif" font-size="14" lengthAdjust="spacingAndGlyphs" textLength="109" x="2939" y="114.292">OutcomeMapper</text><rect fill="#FEFECE" filter="url(#f1w1npnkd9y32h)" height="30.2969" style="stroke: #A80036; stroke-width: 1.5;" width="123" x="2932" y="1093.8438"/><text fill="#000000" font-family="sans-serif" font-size="14" lengthAdjust="spacingAndGlyphs" textLength="109" x="2939" y="1113.8389">OutcomeMapper</text><text fill="#000000" font-family="sans-serif" font-size="14" lengthAdjust="spacingAndGlyphs" textLength="41" x="3070" y="126.292">ASPSP</text><path d="M3073,85.2969 L3073,109.2969 M3073,97.2969 L3090,97.2969 " fill="none" filter="url(#f1w1npnkd9y32h)" style="stroke: #A80036; stroke-width: 2.0;"/><ellipse cx="3102" cy="97.2969" fill="#FEFECE" filter="url(#f1w1npnkd9y32h)" rx="12" ry="12" style="stroke: #A80036; stroke-width: 2.0;"/><text fill="#000000" font-family="sans-serif" font-size="14" lengthAdjust="spacingAndGlyphs" textLength="41" x="3070" y="1106.8389">ASPSP</text><path d="M3073,1114.1406 L3073,1138.1406 M3073,1126.1406 L3090,1126.1406 " fill="none" filter="url(#f1w1npnkd9y32h)" style="stroke: #A80036; stroke-width: 2.0;"/><ellipse cx="3102" cy="1126.1406" fill="#FEFECE" filter="url(#f1w1npnkd9y32h)" rx="12" ry="12" style="stroke: #A80036; stroke-width: 2.0;"/><rect fill="#FFFFFF" filter="url(#f1w1npnkd9y32h)" height="857.8516" style="stroke: #A80036; stroke-width: 1.0;" width="10" x="427" y="218.9922"/><rect fill="#FFFFFF" filter="url(#f1w1npnkd9y32h)" height="799.5859" style="stroke: #A80036; stroke-width: 1.0;" width="10" x="587" y="248.125"/><rect fill="#FFFFFF" filter="url(#f1w1npnkd9y32h)" height="29.1328" style="stroke: #A80036; stroke-width: 1.0;" width="10" x="955" y="989.4453"/><rect fill="#FFFFFF" filter="url(#f1w1npnkd9y32h)" height="683.0547" style="stroke: #A80036; stroke-width: 1.0;" width="10" x="1111.5" y="277.2578"/><rect fill="#FFFFFF" filter="url(#f1w1npnkd9y32h)" height="29.1328" style="stroke: #A80036; stroke-width: 1.0;" width="10" x="1213.5" y="393.7891"/><rect fill="#FFFFFF" filter="url(#f1w1npnkd9y32h)" height="29.1328" style="stroke: #A80036; stroke-width: 1.0;" width="10" x="1213.5" y="582.5859"/><rect fill="#FFFFFF" filter="url(#f1w1npnkd9y32h)" height="29.1328" style="stroke: #A80036; stroke-width: 1.0;" width="10" x="1362.5" y="306.3906"/><rect fill="#FFFFFF" filter="url(#f1w1npnkd9y32h)" height="87.3984" style="stroke: #A80036; stroke-width: 1.0;" width="10" x="1546.5" y="364.6563"/><rect fill="#FFFFFF" filter="url(#f1w1npnkd9y32h)" height="29.1328" style="stroke: #A80036; stroke-width: 1.0;" width="10" x="1646.5" y="481.1875"/><rect fill="#FFFFFF" filter="url(#f1w1npnkd9y32h)" height="29.1328" style="stroke: #A80036; stroke-width: 1.0;" width="10" x="1765.5" y="902.0469"/><rect fill="#FFFFFF" filter="url(#f1w1npnkd9y32h)" height="333.4609" style="stroke: #A80036; stroke-width: 1.0;" width="10" x="1954" y="539.4531"/><rect fill="#FFFFFF" filter="url(#f1w1npnkd9y32h)" height="29.1328" style="stroke: #A80036; stroke-width: 1.0;" width="10" x="2531.5" y="785.5156"/><rect fill="#FFFFFF" filter="url(#f1w1npnkd9y32h)" height="532.3906" style="stroke: #A80036; stroke-width: 1.0;" width="10" x="2686.5" y="553.4531"/><rect fill="#FFFFFF" filter="url(#f1w1npnkd9y32h)" height="87.3984" style="stroke: #A80036; stroke-width: 1.0;" width="10" x="2990.5" y="756.3828"/><rect fill="#FFFFFF" filter="url(#f1w1npnkd9y32h)" height="29.1328" style="stroke: #A80036; stroke-width: 1.0;" width="10" x="3088.5" y="698.1172"/><rect fill="#EEEEEE" filter="url(#f1w1npnkd9y32h)" height="3" style="stroke: #EEEEEE; stroke-width: 1.0;" width="3120" x="3" y="160.1602"/><line style="stroke: #000000; stroke-width: 1.0;" x1="3" x2="3123" y1="160.1602" y2="160.1602"/><line style="stroke: #000000; stroke-width: 1.0;" x1="3" x2="3123" y1="163.1602" y2="163.1602"/><rect fill="#EEEEEE" filter="url(#f1w1npnkd9y32h)" height="23.1328" style="stroke: #000000; stroke-width: 2.0;" width="379" x="1373.5" y="149.5938"/><text fill="#000000" font-family="sans-serif" font-size="13" font-weight="bold" lengthAdjust="spacingAndGlyphs" textLength="361" x="1379.5" y="165.6606">Fintech calls user account list within same session id</text><polygon fill="#A80036" points="415,214.9922,425,218.9922,415,222.9922,419,218.9922" style="stroke: #A80036; stroke-width: 1.0;"/><line style="stroke: #A80036; stroke-width: 1.0;" x1="36" x2="421" y1="218.9922" y2="218.9922"/><text fill="#000000" font-family="sans-serif" font-size="13" lengthAdjust="spacingAndGlyphs" textLength="88" x="43" y="198.7935">GET /accounts</text><text fill="#000000" font-family="sans-serif" font-size="13" lengthAdjust="spacingAndGlyphs" textLength="26" x="47" y="213.9263">with</text><text fill="#000000" font-family="sans-serif" font-size="13" font-weight="bold" lengthAdjust="spacingAndGlyphs" textLength="119" x="77" y="213.9263">service session id</text><text fill="#000000" font-family="sans-serif" font-size="13" lengthAdjust="spacingAndGlyphs" textLength="215" x="200" y="213.9263">and Fintech user info, bank id, etc.</text><polygon fill="#A80036" points="575,244.125,585,248.125,575,252.125,579,248.125" style="stroke: #A80036; stroke-width: 1.0;"/><line style="stroke: #A80036; stroke-width: 1.0;" x1="437" x2="581" y1="248.125" y2="248.125"/><text fill="#000000" font-family="sans-serif" font-size="13" lengthAdjust="spacingAndGlyphs" textLength="77" x="444" y="243.0591">getAccounts</text><polygon fill="#A80036" points="1099.5,273.2578,1109.5,277.2578,1099.5,281.2578,1103.5,277.2578" style="stroke: #A80036; stroke-width: 1.0;"/><line style="stroke: #A80036; stroke-width: 1.0;" x1="597" x2="1105.5" y1="277.2578" y2="277.2578"/><text fill="#000000" font-family="sans-serif" font-size="13" lengthAdjust="spacingAndGlyphs" textLength="109" x="604" y="272.1919">Facade.execute()</text><polygon fill="#A80036" points="1350.5,302.3906,1360.5,306.3906,1350.5,310.3906,1354.5,306.3906" style="stroke: #A80036; stroke-width: 1.0;"/><line style="stroke: #A80036; stroke-width: 1.0;" x1="1121.5" x2="1356.5" y1="306.3906" y2="306.3906"/><text fill="#000000" font-family="sans-serif" font-size="13" lengthAdjust="spacingAndGlyphs" textLength="222" x="1128.5" y="301.3247">Create facade context from request</text><polygon fill="#A80036" points="1132.5,331.5234,1122.5,335.5234,1132.5,339.5234,1128.5,335.5234" style="stroke: #A80036; stroke-width: 1.0;"/><line style="stroke: #A80036; stroke-width: 1.0;" x1="1126.5" x2="1366.5" y1="335.5234" y2="335.5234"/><text fill="#000000" font-family="sans-serif" font-size="13" lengthAdjust="spacingAndGlyphs" textLength="95" x="1138.5" y="330.4575">ServiceContext</text><polygon fill="#A80036" points="1534.5,360.6563,1544.5,364.6563,1534.5,368.6563,1538.5,364.6563" style="stroke: #A80036; stroke-width: 1.0;"/><line style="stroke: #A80036; stroke-width: 1.0;" x1="1121.5" x2="1540.5" y1="364.6563" y2="364.6563"/><text fill="#000000" font-family="sans-serif" font-size="13" lengthAdjust="spacingAndGlyphs" textLength="318" x="1128.5" y="359.5903">Select bank protocol from request type and bank id</text><polygon fill="#A80036" points="1234.5,389.7891,1224.5,393.7891,1234.5,397.7891,1230.5,393.7891" style="stroke: #A80036; stroke-width: 1.0;"/><line style="stroke: #A80036; stroke-width: 1.0;" x1="1228.5" x2="1545.5" y1="393.7891" y2="393.7891"/><text fill="#000000" font-family="sans-serif" font-size="13" lengthAdjust="spacingAndGlyphs" textLength="304" x="1240.5" y="388.7231">Read bank protocol using bank uuid and action id</text><polygon fill="#A80036" points="1534.5,418.9219,1544.5,422.9219,1534.5,426.9219,1538.5,422.9219" style="stroke: #A80036; stroke-width: 1.0;"/><line style="stroke: #A80036; stroke-width: 1.0;" x1="1218.5" x2="1540.5" y1="422.9219" y2="422.9219"/><text fill="#000000" font-family="sans-serif" font-size="13" lengthAdjust="spacingAndGlyphs" textLength="78" x="1225.5" y="417.856">BankProtocol</text><polygon fill="#A80036" points="1132.5,448.0547,1122.5,452.0547,1132.5,456.0547,1128.5,452.0547" style="stroke: #A80036; stroke-width: 1.0;"/><line style="stroke: #A80036; stroke-width: 1.0;" x1="1126.5" x2="1550.5" y1="452.0547" y2="452.0547"/><text fill="#000000" font-family="sans-serif" font-size="13" lengthAdjust="spacingAndGlyphs" textLength="78" x="1138.5" y="446.9888">BankProtocol</text><polygon fill="#A80036" points="1634.5,477.1875,1644.5,481.1875,1634.5,485.1875,1638.5,481.1875" style="stroke: #A80036; stroke-width: 1.0;"/><line style="stroke: #A80036; stroke-width: 1.0;" x1="1121.5" x2="1640.5" y1="481.1875" y2="481.1875"/><text fill="#000000" font-family="sans-serif" font-size="13" lengthAdjust="spacingAndGlyphs" textLength="408" x="1128.5" y="476.1216">Find bean - Bean(BankProtocol.protocolBeanName) extends Action</text><polygon fill="#A80036" points="1132.5,506.3203,1122.5,510.3203,1132.5,514.3203,1128.5,510.3203" style="stroke: #A80036; stroke-width: 1.0;"/><line style="stroke: #A80036; stroke-width: 1.0;" x1="1126.5" x2="1650.5" y1="510.3203" y2="510.3203"/><text fill="#000000" font-family="sans-serif" font-size="13" lengthAdjust="spacingAndGlyphs" textLength="278" x="1138.5" y="505.2544">It is Xs2aListAccountsEntrypoint service bean</text><polygon fill="#A80036" points="1942,535.4531,1952,539.4531,1942,543.4531,1946,539.4531" style="stroke: #A80036; stroke-width: 1.0;"/><line style="stroke: #A80036; stroke-width: 1.0;" x1="1121.5" x2="1948" y1="539.4531" y2="539.4531"/><text fill="#000000" font-family="sans-serif" font-size="13" lengthAdjust="spacingAndGlyphs" textLength="330" x="1128.5" y="534.3872">Xs2aListAccountsEntrypoint.execute(ServiceContext)</text><polygon fill="#A80036" points="2674.5,549.4531,2684.5,553.4531,2674.5,557.4531,2678.5,553.4531" style="stroke: #A80036; stroke-width: 1.0;"/><line style="stroke: #A80036; stroke-width: 1.0;" x1="1964" x2="2680.5" y1="553.4531" y2="553.4531"/><polygon fill="#A80036" points="1234.5,578.5859,1224.5,582.5859,1234.5,586.5859,1230.5,582.5859" style="stroke: #A80036; stroke-width: 1.0;"/><line style="stroke: #A80036; stroke-width: 1.0;" x1="1228.5" x2="2685.5" y1="582.5859" y2="582.5859"/><text fill="#000000" font-family="sans-serif" font-size="13" lengthAdjust="spacingAndGlyphs" textLength="167" x="1240.5" y="577.52">Consent for service session</text><polygon fill="#A80036" points="2674.5,607.7188,2684.5,611.7188,2674.5,615.7188,2678.5,611.7188" style="stroke: #A80036; stroke-width: 1.0;"/><line style="stroke: #A80036; stroke-width: 1.0;" x1="1218.5" x2="2680.5" y1="611.7188" y2="611.7188"/><text fill="#000000" font-family="sans-serif" font-size="13" lengthAdjust="spacingAndGlyphs" textLength="107" x="1225.5" y="606.6528">Consent present,</text><text fill="#000000" font-family="sans-serif" font-size="13" font-weight="bold" lengthAdjust="spacingAndGlyphs" textLength="110" x="1336.5" y="606.6528">consent context</text><line style="stroke: #A80036; stroke-width: 1.0;" x1="2696.5" x2="2738.5" y1="655.9844" y2="655.9844"/><line style="stroke: #A80036; stroke-width: 1.0;" x1="2738.5" x2="2738.5" y1="655.9844" y2="668.9844"/><line style="stroke: #A80036; stroke-width: 1.0;" x1="2697.5" x2="2738.5" y1="668.9844" y2="668.9844"/><polygon fill="#A80036" points="2707.5,664.9844,2697.5,668.9844,2707.5,672.9844,2703.5,668.9844" style="stroke: #A80036; stroke-width: 1.0;"/><text fill="#000000" font-family="sans-serif" font-size="13" lengthAdjust="spacingAndGlyphs" textLength="49" x="2703.5" y="635.7856">Validate</text><text fill="#000000" font-family="sans-serif" font-size="13" font-weight="bold" lengthAdjust="spacingAndGlyphs" textLength="110" x="2756.5" y="635.7856">consent context</text><text fill="#000000" font-family="sans-serif" font-size="13" lengthAdjust="spacingAndGlyphs" textLength="4" x="2870.5" y="635.7856">-</text><text fill="#000000" font-family="sans-serif" font-size="13" lengthAdjust="spacingAndGlyphs" textLength="280" x="2703.5" y="650.9185">do we have enough data (Mocked execution)</text><polygon fill="#A80036" points="3076.5,694.1172,3086.5,698.1172,3076.5,702.1172,3080.5,698.1172" style="stroke: #A80036; stroke-width: 1.0;"/><line style="stroke: #A80036; stroke-width: 1.0;" x1="2696.5" x2="3082.5" y1="698.1172" y2="698.1172"/><text fill="#000000" font-family="sans-serif" font-size="13" lengthAdjust="spacingAndGlyphs" textLength="184" x="2703.5" y="693.0513">Call ASPSP with consent using</text><text fill="#000000" font-family="sans-serif" font-size="13" font-weight="bold" lengthAdjust="spacingAndGlyphs" textLength="110" x="2891.5" y="693.0513">consent context</text><polygon fill="#A80036" points="2707.5,723.25,2697.5,727.25,2707.5,731.25,2703.5,727.25" style="stroke: #A80036; stroke-width: 1.0;"/><line style="stroke: #A80036; stroke-width: 1.0;" x1="2701.5" x2="3092.5" y1="727.25" y2="727.25"/><text fill="#000000" font-family="sans-serif" font-size="13" lengthAdjust="spacingAndGlyphs" textLength="96" x="2713.5" y="722.1841">Users' accounts</text><polygon fill="#A80036" points="2978.5,752.3828,2988.5,756.3828,2978.5,760.3828,2982.5,756.3828" style="stroke: #A80036; stroke-width: 1.0;"/><line style="stroke: #A80036; stroke-width: 1.0;" x1="2696.5" x2="2984.5" y1="756.3828" y2="756.3828"/><text fill="#000000" font-family="sans-serif" font-size="13" lengthAdjust="spacingAndGlyphs" textLength="158" x="2703.5" y="751.3169">Translate ASPSP response</text><polygon fill="#A80036" points="2552.5,781.5156,2542.5,785.5156,2552.5,789.5156,2548.5,785.5156" style="stroke: #A80036; stroke-width: 1.0;"/><line style="stroke: #A80036; stroke-width: 1.0;" x1="2546.5" x2="2989.5" y1="785.5156" y2="785.5156"/><text fill="#000000" font-family="sans-serif" font-size="13" lengthAdjust="spacingAndGlyphs" textLength="158" x="2558.5" y="780.4497">Translate ASPSP response</text><polygon fill="#A80036" points="2978.5,810.6484,2988.5,814.6484,2978.5,818.6484,2982.5,814.6484" style="stroke: #A80036; stroke-width: 1.0;"/><line style="stroke: #A80036; stroke-width: 1.0;" x1="2536.5" x2="2984.5" y1="814.6484" y2="814.6484"/><text fill="#000000" font-family="sans-serif" font-size="13" lengthAdjust="spacingAndGlyphs" textLength="71" x="2543.5" y="809.5825">Account list</text><polygon fill="#A80036" points="1975,839.7813,1965,843.7813,1975,847.7813,1971,843.7813" style="stroke: #A80036; stroke-width: 1.0;"/><line style="stroke: #A80036; stroke-width: 1.0;" x1="1969" x2="2994.5" y1="843.7813" y2="843.7813"/><text fill="#000000" font-family="sans-serif" font-size="13" lengthAdjust="spacingAndGlyphs" textLength="71" x="1981" y="838.7153">Account list</text><polygon fill="#A80036" points="1132.5,868.9141,1122.5,872.9141,1132.5,876.9141,1128.5,872.9141" style="stroke: #A80036; stroke-width: 1.0;"/><line style="stroke: #A80036; stroke-width: 1.0;" x1="1126.5" x2="1958" y1="872.9141" y2="872.9141"/><text fill="#000000" font-family="sans-serif" font-size="13" lengthAdjust="spacingAndGlyphs" textLength="180" x="1138.5" y="867.8481">SuccessResult&lt;Account list&gt;</text><polygon fill="#A80036" points="1753.5,898.0469,1763.5,902.0469,1753.5,906.0469,1757.5,902.0469" style="stroke: #A80036; stroke-width: 1.0;"/><line style="stroke: #A80036; stroke-width: 1.0;" x1="1121.5" x2="1759.5" y1="902.0469" y2="902.0469"/><text fill="#000000" font-family="sans-serif" font-size="13" lengthAdjust="spacingAndGlyphs" textLength="304" x="1128.5" y="896.981">Translate SuccessResult -&gt; FacadeSuccessResult</text><polygon fill="#A80036" points="1132.5,927.1797,1122.5,931.1797,1132.5,935.1797,1128.5,931.1797" style="stroke: #A80036; stroke-width: 1.0;"/><line style="stroke: #A80036; stroke-width: 1.0;" x1="1126.5" x2="1769.5" y1="931.1797" y2="931.1797"/><text fill="#000000" font-family="sans-serif" font-size="13" lengthAdjust="spacingAndGlyphs" textLength="133" x="1138.5" y="926.1138">FacadeSuccessResult</text><polygon fill="#A80036" points="608,956.3125,598,960.3125,608,964.3125,604,960.3125" style="stroke: #A80036; stroke-width: 1.0;"/><line style="stroke: #A80036; stroke-width: 1.0;" x1="602" x2="1115.5" y1="960.3125" y2="960.3125"/><text fill="#000000" font-family="sans-serif" font-size="13" lengthAdjust="spacingAndGlyphs" textLength="133" x="614" y="955.2466">FacadeSuccessResult</text><polygon fill="#A80036" points="943,985.4453,953,989.4453,943,993.4453,947,989.4453" style="stroke: #A80036; stroke-width: 1.0;"/><line style="stroke: #A80036; stroke-width: 1.0;" x1="597" x2="949" y1="989.4453" y2="989.4453"/><text fill="#000000" font-family="sans-serif" font-size="13" lengthAdjust="spacingAndGlyphs" textLength="191" x="604" y="984.3794">translate FacadeSuccessResult</text><polygon fill="#A80036" points="608,1014.5781,598,1018.5781,608,1022.5781,604,1018.5781" style="stroke: #A80036; stroke-width: 1.0;"/><line style="stroke: #A80036; stroke-width: 1.0;" x1="602" x2="959" y1="1018.5781" y2="1018.5781"/><text fill="#000000" font-family="sans-serif" font-size="13" lengthAdjust="spacingAndGlyphs" textLength="238" x="614" y="1013.5122">This is 200 code with Account list body</text><polygon fill="#A80036" points="448,1043.7109,438,1047.7109,448,1051.7109,444,1047.7109" style="stroke: #A80036; stroke-width: 1.0;"/><line style="stroke: #A80036; stroke-width: 1.0;" x1="442" x2="591" y1="1047.7109" y2="1047.7109"/><text fill="#000000" font-family="sans-serif" font-size="13" lengthAdjust="spacingAndGlyphs" textLength="126" x="454" y="1042.645">200 and Account list</text><polygon fill="#A80036" points="47,1072.8438,37,1076.8438,47,1080.8438,43,1076.8438" style="stroke: #A80036; stroke-width: 1.0;"/><line style="stroke: #A80036; stroke-width: 1.0;" x1="41" x2="431" y1="1076.8438" y2="1076.8438"/><text fill="#000000" font-family="sans-serif" font-size="13" lengthAdjust="spacingAndGlyphs" textLength="126" x="53" y="1071.7778">200 and Account list</text><rect fill="#DDDDDD" height="26.2969" rx="5" ry="5" style="stroke: #000000; stroke-width: 1.0;" width="343" x="11" y="11"/><text fill="#000000" font-family="sans-serif" font-size="14" font-weight="bold" lengthAdjust="spacingAndGlyphs" textLength="331" x="17" y="28.9951">Reading account list when consent is present</text><!--MD5=[8bb68bb161cb3bd597beba152df8dd2c]
@startuml
legend top left
  <b>Reading account list when consent is present</b>
endlegend

actor FinTech

collections TppBackend

box "TPP API"
control TppBankingApiAisController
control ConsentServiceController
participant FacadeResponseMapper
endbox

box "OPBA-Facade"
collections FacadeService
database Database
participant ServiceContextProvider
participant ProtocolSelector
participant Spring
participant ProtocolResultHandler
endbox

box "XS2A-Protocol"
participant Xs2aListAccountsEntrypoint
participant Xs2aUpdateAuthorization
participant Xs2aFromAspspRedirect
participant Xs2aResultBodyExtractor
collections Xs2aServices
participant OutcomeMapper
endbox

boundary ASPSP

== Fintech calls user account list within same session id ==

FinTech -> TppBackend ++ : GET /accounts\n with <b>service session id</b> and Fintech user info, bank id, etc.
TppBackend -> TppBankingApiAisController ++ : getAccounts
TppBankingApiAisController -> FacadeService ++ : Facade.execute()
FacadeService -> ServiceContextProvider ++ : Create facade context from request
FacadeService <- ServiceContextProvider - - : ServiceContext
FacadeService -> ProtocolSelector ++ : Select bank protocol from request type and bank id
ProtocolSelector -> Database ++ : Read bank protocol using bank uuid and action id
Database -> ProtocolSelector - - : BankProtocol
ProtocolSelector -> FacadeService - - : BankProtocol
FacadeService -> Spring ++ : Find bean - Bean(BankProtocol.protocolBeanName) extends Action
FacadeService <- Spring - - : It is Xs2aListAccountsEntrypoint service bean
FacadeService -> Xs2aListAccountsEntrypoint ++ : Xs2aListAccountsEntrypoint.execute(ServiceContext)
Xs2aListAccountsEntrypoint -> Xs2aServices ++
Xs2aServices -> Database ++ : Consent for service session
Xs2aServices <- Database - - : Consent present, <b>consent context</b>
Xs2aServices -> Xs2aServices : Validate <b>consent context</b> -\ndo we have enough data (Mocked execution)
Xs2aServices -> ASPSP ++ : Call ASPSP with consent using <b>consent context</b>
ASPSP -> Xs2aServices - - : Users' accounts
Xs2aServices -> OutcomeMapper ++ : Translate ASPSP response
OutcomeMapper -> Xs2aResultBodyExtractor ++: Translate ASPSP response
Xs2aResultBodyExtractor -> OutcomeMapper - - : Account list
OutcomeMapper -> Xs2aListAccountsEntrypoint - - : Account list
Xs2aListAccountsEntrypoint -> FacadeService - - : SuccessResult<Account list>
FacadeService -> ProtocolResultHandler ++ : Translate SuccessResult -> FacadeSuccessResult
ProtocolResultHandler -> FacadeService - - : FacadeSuccessResult
FacadeService -> TppBankingApiAisController - - : FacadeSuccessResult
TppBankingApiAisController -> FacadeResponseMapper ++ : translate FacadeSuccessResult
FacadeResponseMapper -> TppBankingApiAisController - - : This is 200 code with Account list body
TppBankingApiAisController -> TppBackend - -: 200 and Account list
TppBackend -> FinTech - - : 200 and Account list
@enduml

PlantUML version 1.2019.11(Sun Sep 22 13:02:15 EEST 2019)
(GPL source distribution)
Java Runtime: OpenJDK Runtime Environment
JVM: OpenJDK 64-Bit Server VM
Java Version: 11.0.5+10-b520.30
Operating System: Linux
Default Encoding: UTF-8
Language: en
Country: US
--></g></svg>