<?xml version="1.0" encoding="UTF-8"?>
<svg width="89px" height="84px" viewBox="0 0 89 84" version="1.1" xmlns="http://www.w3.org/2000/svg" xmlns:xlink="http://www.w3.org/1999/xlink">
    <title>BB386287-DDDC-41C3-B60B-4DBAC530DA34@1x</title>
    <g id="Page-1" stroke="none" stroke-width="1" fill="none" fill-rule="evenodd">
        <g id="202001-payment-success" transform="translate(-376.000000, -159.000000)" fill="#85CBF8" fill-rule="nonzero">
            <g id="Group" transform="translate(316.000000, 66.000000)">
                <g id="icons8-checked" transform="translate(60.000000, 93.000000)">
                    <path d="M42,0 C26.9948453,0 13.1295105,8.0051545 5.62693306,21 C-1.87564435,33.9948451 -1.87564435,50.0051549 5.62693306,63 C13.1295105,75.9948455 26.9948453,84 42,84 C57.0051547,84 70.8704895,75.9948455 78.3730669,63 C85.8756444,50.0051549 85.8756444,33.9948451 78.3730669,21 C70.8704895,8.0051545 57.0051547,0 42,0 L42,0 Z" id="Path" opacity="0.160109747"></path>
                    <path d="M42,0 C18.8040405,0 0,18.8040405 0,42 C0,65.1959595 18.8040405,84 42,84 C65.1959595,84 84,65.1959595 84,42 C84,30.8609074 79.5750127,20.1780431 71.6984848,12.3015152 C63.8219569,4.4249873 53.1390926,0 42,0 Z M42,75.0000004 C27.1627324,75.0023602 14.1481351,65.1021762 10.1904094,50.8024936 C6.23268373,36.502811 12.3050362,21.3199285 25.0321322,13.6932949 C37.7592283,6.06666123 54.0114691,7.87166924 64.755,18.105 L65.775,19.11 C66.165,19.51 66.54,19.92 66.9,20.34 C75.3881336,30.0965234 77.3951752,43.9118437 72.0341199,55.680329 C66.6730646,67.4488144 54.9320594,75.0013033 42,75.0000004 Z" id="Shape" opacity="0.439662388"></path>
                    <polygon id="Path" points="83 5 42.5 45.8857143 26 29.2285714 20 35.2857143 36.5 51.9428571 42.5 58 48.5 51.9428571 89 11.0571429"></polygon>
                </g>
            </g>
        </g>
    </g>
</svg>