<?xml version="1.0" encoding="UTF-8"?>
<svg width="23px" height="21px" viewBox="0 0 23 21" version="1.1" xmlns="http://www.w3.org/2000/svg" xmlns:xlink="http://www.w3.org/1999/xlink">
    <!-- Generator: Sketch 61.2 (89653) - https://sketch.com -->
    <title>icons8-maintenance</title>
    <desc>Created with Sketch.</desc>
    <g id="Page-1" stroke="none" stroke-width="1" fill="none" fill-rule="evenodd">
        <g id="202001-konto" transform="translate(-37.000000, -300.000000)" fill="#687AA8" fill-rule="nonzero">
            <g id="organisms-/-sidenav">
                <g id="icons8-maintenance" transform="translate(37.000000, 300.000000)">
                    <path d="M1.76954469,0 L0,1.74994874 L1.76954469,5.24984622 L4.42386173,6.12482059 L7.52056495,9.18723089 L9.29010964,7.43728215 L6.19340643,4.37487185 L5.30863408,1.74994874 L1.76954469,0 Z M17.7542011,0.00854464971 C16.2867788,-0.0488345071 14.8019237,0.474755581 13.6811384,1.58247322 C12.2335924,3.01398852 12.103991,4.73572703 12.8240152,6.35552684 L2.5471766,16.5185589 C1.51022349,17.5440289 1.5102234,19.2048947 2.5471766,20.2303647 C3.58412979,21.2558346 5.2635936,21.2558346 6.30054687,20.2303647 L16.5773849,10.0673317 C18.2152162,10.7791234 19.9564508,10.6499929 21.4038871,9.21799149 C22.8982676,7.74015978 23.3412899,5.62160096 22.7414142,3.7596555 L19.4632637,7.00321261 L16.6309552,6.30254976 L15.9224463,3.50160639 L19.2023248,0.259758016 C18.7314048,0.111668604 18.2433422,0.0276710645 17.7542011,0.00854464971 Z M16.3872969,12.806754 L13.057304,16.0998705 L17.3204556,20.31752 C18.2406189,21.2274933 19.732898,21.2274933 20.6521765,20.31752 C21.5723398,19.4075466 21.5723398,17.932668 20.6521765,17.0226946 L16.3872969,12.806754 Z M4.42386173,17.4994874 C4.91225607,17.4994874 5.30863408,17.8914759 5.30863408,18.3744618 C5.30863408,18.8574476 4.91225607,19.2494362 4.42386173,19.2494362 C3.9354674,19.2494362 3.53908939,18.8574476 3.53908939,18.3744618 C3.53908939,17.8914759 3.9354674,17.4994874 4.42386173,17.4994874 Z" id="Shape-Copy"></path>
                </g>
            </g>
        </g>
    </g>
</svg>