<?xml version="1.0" encoding="UTF-8"?>
<svg width="24px" height="21px" viewBox="0 0 24 21" version="1.1" xmlns="http://www.w3.org/2000/svg" xmlns:xlink="http://www.w3.org/1999/xlink">
    <!-- Generator: Sketch 61.2 (89653) - https://sketch.com -->
    <title>icons8-bank_cards</title>
    <desc>Created with Sketch.</desc>
    <g id="Page-1" stroke="none" stroke-width="1" fill="none" fill-rule="evenodd">
        <g id="202001-konto" transform="translate(-37.000000, -182.000000)" fill="#687AA8" fill-rule="nonzero">
            <g id="organisms-/-sidenav">
                <g id="icons8-bank_cards" transform="translate(37.000000, 182.000000)">
                    <path d="M2.0952381,0 C0.939174238,0 0,1.02455371 0,2.28571429 L0,4 L22,4 L22,2.28571429 C22,1.02455371 21.0608258,0 19.9047619,0 L2.0952381,0 Z M0,6 L0,13 C0,14.1035155 0.939174238,15 2.0952381,15 L19.9047619,15 C21.0608258,15 22,14.1035155 22,13 L22,6 L0,6 Z M4,8 L12,8 L12,9 L4,9 L4,8 Z M22.9613926,10 L22.9613926,13.5391304 C22.9613926,15.2269929 21.5641018,16.6 19.8463869,16.6 L2.19468786,16.6 C2.13181977,16.6 2.06286808,16.5880437 2,16.584058 L2.50294363,19.3101449 C2.60028756,19.8481887 2.89231935,20.3224638 3.34659101,20.6333333 C3.69946301,20.8764495 4.10911845,21 4.53094214,21 C4.65262205,21 4.78241396,20.9900364 4.90409387,20.9681159 L22.2799851,17.9231884 C22.8255166,17.8275362 23.3102084,17.5246377 23.6265761,17.0782609 C23.9429439,16.6318841 24.0646238,16.0998187 23.9672799,15.5637681 L22.9613926,10 Z" id="Shape"></path>
                </g>
            </g>
        </g>
    </g>
</svg>
