<?xml version="1.0" encoding="UTF-8"?>
<svg width="32px" height="21px" viewBox="0 0 32 21" version="1.1" xmlns="http://www.w3.org/2000/svg" xmlns:xlink="http://www.w3.org/1999/xlink">
    <!-- Generator: Sketch 61.2 (89653) - https://sketch.com -->
    <title>Volksbank_Logo</title>
    <desc>Created with Sketch.</desc>
    <g id="Page-1" stroke="none" stroke-width="1" fill="none" fill-rule="evenodd">
        <g id="202001-banksuche" transform="translate(-465.000000, -482.000000)" fill-rule="nonzero">
            <g id="Group" transform="translate(365.000000, 121.000000)">
                <g id="Volksbank_Logo" transform="translate(100.000000, 361.000000)">
                    <polygon id="path26" fill="#FFFFFF" points="0 0 0 21 32 21 32 2.85747887e-15"></polygon>
                    <path d="M19.564557,16 C19.2531404,17.8191115 18.9892123,19.3638741 18.8868291,19.9639152 L31,19.9639152 L31,16 L19.564557,16 Z M1,16.0360848 L1,20 L13.0272387,20 L12.2246661,16.0360848 L1,16.0360848 Z" id="path54" fill="#E05F0C"></path>
                    <path d="M6.90990508,8.64644405 L6.0345533,5.24985983 L13.503199,5.24985983 L15.9219354,15 L16.0251684,15 L17.5489292,8.75418521 C18.3167817,5.91832365 18.6068596,5.24985983 22.9341356,5.24985983 L26.0464976,5.24985983 C26.0464976,5.24985983 25.4177124,7.86394792 24.6353553,10.7005957 C24.3375989,11.7827212 21.7388448,11.6545332 21.8685262,10.6439729 C21.8821774,10.5385913 22.0050337,9.77811497 22.1022951,9.23705199 C22.2439212,8.45848789 21.2585103,8.36097088 21.0810509,9.13167044 C20.9547818,9.6837433 20.3840115,12.4236603 19.8507803,15 L31,15 L31,1 L1,1 L1,15 L11.887296,15 L10.3362339,8.65116278 L6.90990508,8.64644262 L6.90990508,8.64644405 Z" id="path62" fill="#0A438A"></path>
                </g>
            </g>
        </g>
    </g>
</svg>